<svg xmlns="http://www.w3.org/2000/svg" width="960" height="500"><defs><style type="text/css"><![CDATA[ 
    .bar { fill: steelblue; }
    .bar:hover { fill: brown; }
   ]]></style></defs><g transform="translate(40, 20)"><rect class="bar" x="1.604278074866329" width="14.438502673796792" y="135.64593301435409" height="314.3540669856459"></rect><rect class="bar" x="17.64705882352943" width="14.438502673796792" y="130.2631578947368" height="319.73684210526324"></rect><rect class="bar" x="33.68983957219253" width="14.438502673796792" y="130.2631578947368" height="319.73684210526324"></rect><rect class="bar" x="49.73262032085563" width="14.438502673796792" y="121.86602870813392" height="328.1339712918661"></rect><rect class="bar" x="65.77540106951874" width="14.438502673796792" y="115.83732057416265" height="334.1626794258374"></rect><rect class="bar" x="81.81818181818184" width="14.438502673796792" y="109.80861244019137" height="340.1913875598086"></rect><rect class="bar" x="97.86096256684493" width="14.438502673796792" y="109.80861244019137" height="340.1913875598086"></rect><rect class="bar" x="113.90374331550804" width="14.438502673796792" y="106.57894736842104" height="343.42105263157896"></rect><rect class="bar" x="129.94652406417114" width="14.438502673796792" y="104.42583732057413" height="345.57416267942585"></rect><rect class="bar" x="145.98930481283423" width="14.438502673796792" y="101.19617224880376" height="348.80382775119625"></rect><rect class="bar" x="162.03208556149735" width="14.438502673796792" y="94.73684210526315" height="355.2631578947369"></rect><rect class="bar" x="178.07486631016044" width="14.438502673796792" y="94.73684210526315" height="355.2631578947369"></rect><rect class="bar" x="194.11764705882354" width="14.438502673796792" y="92.58373205741626" height="357.4162679425838"></rect><rect class="bar" x="210.16042780748666" width="14.438502673796792" y="92.58373205741626" height="357.4162679425838"></rect><rect class="bar" x="226.20320855614975" width="14.438502673796792" y="92.58373205741626" height="357.4162679425838"></rect><rect class="bar" x="242.24598930481287" width="14.438502673796792" y="81.8181818181818" height="368.1818181818182"></rect><rect class="bar" x="258.28877005347596" width="14.438502673796792" y="79.66507177033489" height="370.33492822966514"></rect><rect class="bar" x="274.3315508021391" width="14.438502673796792" y="77.511961722488" height="372.48803827751203"></rect><rect class="bar" x="290.37433155080214" width="14.438502673796792" y="75.35885167464114" height="374.64114832535887"></rect><rect class="bar" x="306.41711229946526" width="14.438502673796792" y="73.20574162679424" height="376.79425837320576"></rect><rect class="bar" x="322.4598930481284" width="14.438502673796792" y="71.05263157894734" height="378.94736842105266"></rect><rect class="bar" x="338.50267379679144" width="14.438502673796792" y="71.05263157894734" height="378.94736842105266"></rect><rect class="bar" x="354.54545454545456" width="14.438502673796792" y="68.89952153110043" height="381.10047846889955"></rect><rect class="bar" x="370.5882352941177" width="14.438502673796792" y="66.74641148325354" height="383.25358851674645"></rect><rect class="bar" x="386.63101604278074" width="14.438502673796792" y="62.440191387559786" height="387.55980861244024"></rect><rect class="bar" x="402.67379679144386" width="14.438502673796792" y="60.287081339712884" height="389.71291866028713"></rect><rect class="bar" x="418.716577540107" width="14.438502673796792" y="58.13397129186598" height="391.866028708134"></rect><rect class="bar" x="434.7593582887701" width="14.438502673796792" y="55.98086124401908" height="394.0191387559809"></rect><rect class="bar" x="450.80213903743316" width="14.438502673796792" y="53.82775119617218" height="396.1722488038278"></rect><rect class="bar" x="466.8449197860963" width="14.438502673796792" y="51.67464114832533" height="398.32535885167465"></rect><rect class="bar" x="482.8877005347594" width="14.438502673796792" y="49.52153110047843" height="400.47846889952154"></rect><rect class="bar" x="498.93048128342247" width="14.438502673796792" y="47.368421052631525" height="402.6315789473685"></rect><rect class="bar" x="514.9732620320856" width="14.438502673796792" y="45.215311004784674" height="404.78468899521533"></rect><rect class="bar" x="531.0160427807486" width="14.438502673796792" y="40.90909090909092" height="409.09090909090907"></rect><rect class="bar" x="547.0588235294118" width="14.438502673796792" y="38.75598086124402" height="411.24401913875596"></rect><rect class="bar" x="563.1016042780749" width="14.438502673796792" y="36.60287081339712" height="413.3971291866029"></rect><rect class="bar" x="579.144385026738" width="14.438502673796792" y="36.60287081339712" height="413.3971291866029"></rect><rect class="bar" x="595.1871657754011" width="14.438502673796792" y="32.296650717703315" height="417.7033492822967"></rect><rect class="bar" x="611.2299465240642" width="14.438502673796792" y="32.296650717703315" height="417.7033492822967"></rect><rect class="bar" x="627.2727272727273" width="14.438502673796792" y="30.143540669856417" height="419.8564593301436"></rect><rect class="bar" x="643.3155080213904" width="14.438502673796792" y="27.990430622009566" height="422.00956937799043"></rect><rect class="bar" x="659.3582887700535" width="14.438502673796792" y="27.990430622009566" height="422.00956937799043"></rect><rect class="bar" x="675.4010695187166" width="14.438502673796792" y="25.837320574162664" height="424.1626794258373"></rect><rect class="bar" x="691.4438502673797" width="14.438502673796792" y="25.837320574162664" height="424.1626794258373"></rect><rect class="bar" x="707.4866310160428" width="14.438502673796792" y="19.37799043062196" height="430.62200956937806"></rect><rect class="bar" x="723.5294117647059" width="14.438502673796792" y="17.224880382775158" height="432.77511961722485"></rect><rect class="bar" x="739.572192513369" width="14.438502673796792" y="17.224880382775158" height="432.77511961722485"></rect><rect class="bar" x="755.6149732620321" width="14.438502673796792" y="15.071770334928209" height="434.9282296650718"></rect><rect class="bar" x="771.6577540106952" width="14.438502673796792" y="12.918660287081357" height="437.08133971291863"></rect><rect class="bar" x="787.7005347593583" width="14.438502673796792" y="12.918660287081357" height="437.08133971291863"></rect><rect class="bar" x="803.7433155080214" width="14.438502673796792" y="10.765550239234406" height="439.2344497607656"></rect><rect class="bar" x="819.7860962566846" width="14.438502673796792" y="8.612440191387554" height="441.3875598086124"></rect><rect class="bar" x="835.8288770053476" width="14.438502673796792" y="4.306220095693803" height="445.6937799043062"></rect><rect class="bar" x="851.8716577540107" width="14.438502673796792" y="4.306220095693803" height="445.6937799043062"></rect><rect class="bar" x="867.9144385026739" width="14.438502673796792" y="2.1531100478468512" height="447.84688995215316"></rect><rect class="bar" x="883.9572192513369" width="14.438502673796792" y="0" height="450"></rect><g transform="translate(0, 450)" fill="none" font-size="10" font-family="sans-serif" text-anchor="middle"><path class="domain" stroke="#000" d="M0.5000,6V0.5000H900.5000V6"></path><g class="tick" opacity="1" transform="translate(8.823529411764724,0)"><line stroke="#000" y2="6"></line><text fill="#000" y="9" dy="0.71em">0</text></g><g class="tick" opacity="1" transform="translate(24.866310160427826,0)"><line stroke="#000" y2="6"></line><text fill="#000" y="9" dy="0.71em">1</text></g><g class="tick" opacity="1" transform="translate(40.90909090909093,0)"><line stroke="#000" y2="6"></line><text fill="#000" y="9" dy="0.71em">2</text></g><g class="tick" opacity="1" transform="translate(56.951871657754026,0)"><line stroke="#000" y2="6"></line><text fill="#000" y="9" dy="0.71em">3</text></g><g class="tick" opacity="1" transform="translate(72.99465240641713,0)"><line stroke="#000" y2="6"></line><text fill="#000" y="9" dy="0.71em">4</text></g><g class="tick" opacity="1" transform="translate(89.03743315508024,0)"><line stroke="#000" y2="6"></line><text fill="#000" y="9" dy="0.71em">5</text></g><g class="tick" opacity="1" transform="translate(105.08021390374333,0)"><line stroke="#000" y2="6"></line><text fill="#000" y="9" dy="0.71em">6</text></g><g class="tick" opacity="1" transform="translate(121.12299465240643,0)"><line stroke="#000" y2="6"></line><text fill="#000" y="9" dy="0.71em">7</text></g><g class="tick" opacity="1" transform="translate(137.16577540106954,0)"><line stroke="#000" y2="6"></line><text fill="#000" y="9" dy="0.71em">8</text></g><g class="tick" opacity="1" transform="translate(153.20855614973263,0)"><line stroke="#000" y2="6"></line><text fill="#000" y="9" dy="0.71em">9</text></g><g class="tick" opacity="1" transform="translate(169.25133689839575,0)"><line stroke="#000" y2="6"></line><text fill="#000" y="9" dy="0.71em">10</text></g><g class="tick" opacity="1" transform="translate(185.29411764705884,0)"><line stroke="#000" y2="6"></line><text fill="#000" y="9" dy="0.71em">11</text></g><g class="tick" opacity="1" transform="translate(201.33689839572193,0)"><line stroke="#000" y2="6"></line><text fill="#000" y="9" dy="0.71em">12</text></g><g class="tick" opacity="1" transform="translate(217.37967914438505,0)"><line stroke="#000" y2="6"></line><text fill="#000" y="9" dy="0.71em">13</text></g><g class="tick" opacity="1" transform="translate(233.42245989304814,0)"><line stroke="#000" y2="6"></line><text fill="#000" y="9" dy="0.71em">14</text></g><g class="tick" opacity="1" transform="translate(249.46524064171126,0)"><line stroke="#000" y2="6"></line><text fill="#000" y="9" dy="0.71em">15</text></g><g class="tick" opacity="1" transform="translate(265.5080213903744,0)"><line stroke="#000" y2="6"></line><text fill="#000" y="9" dy="0.71em">16</text></g><g class="tick" opacity="1" transform="translate(281.5508021390375,0)"><line stroke="#000" y2="6"></line><text fill="#000" y="9" dy="0.71em">17</text></g><g class="tick" opacity="1" transform="translate(297.59358288770056,0)"><line stroke="#000" y2="6"></line><text fill="#000" y="9" dy="0.71em">18</text></g><g class="tick" opacity="1" transform="translate(313.6363636363637,0)"><line stroke="#000" y2="6"></line><text fill="#000" y="9" dy="0.71em">19</text></g><g class="tick" opacity="1" transform="translate(329.6791443850268,0)"><line stroke="#000" y2="6"></line><text fill="#000" y="9" dy="0.71em">20</text></g><g class="tick" opacity="1" transform="translate(345.72192513368987,0)"><line stroke="#000" y2="6"></line><text fill="#000" y="9" dy="0.71em">21</text></g><g class="tick" opacity="1" transform="translate(361.764705882353,0)"><line stroke="#000" y2="6"></line><text fill="#000" y="9" dy="0.71em">22</text></g><g class="tick" opacity="1" transform="translate(377.8074866310161,0)"><line stroke="#000" y2="6"></line><text fill="#000" y="9" dy="0.71em">23</text></g><g class="tick" opacity="1" transform="translate(393.85026737967917,0)"><line stroke="#000" y2="6"></line><text fill="#000" y="9" dy="0.71em">24</text></g><g class="tick" opacity="1" transform="translate(409.8930481283423,0)"><line stroke="#000" y2="6"></line><text fill="#000" y="9" dy="0.71em">25</text></g><g class="tick" opacity="1" transform="translate(425.9358288770054,0)"><line stroke="#000" y2="6"></line><text fill="#000" y="9" dy="0.71em">26</text></g><g class="tick" opacity="1" transform="translate(441.9786096256685,0)"><line stroke="#000" y2="6"></line><text fill="#000" y="9" dy="0.71em">27</text></g><g class="tick" opacity="1" transform="translate(458.0213903743316,0)"><line stroke="#000" y2="6"></line><text fill="#000" y="9" dy="0.71em">28</text></g><g class="tick" opacity="1" transform="translate(474.0641711229947,0)"><line stroke="#000" y2="6"></line><text fill="#000" y="9" dy="0.71em">29</text></g><g class="tick" opacity="1" transform="translate(490.1069518716578,0)"><line stroke="#000" y2="6"></line><text fill="#000" y="9" dy="0.71em">30</text></g><g class="tick" opacity="1" transform="translate(506.1497326203209,0)"><line stroke="#000" y2="6"></line><text fill="#000" y="9" dy="0.71em">31</text></g><g class="tick" opacity="1" transform="translate(522.192513368984,0)"><line stroke="#000" y2="6"></line><text fill="#000" y="9" dy="0.71em">32</text></g><g class="tick" opacity="1" transform="translate(538.2352941176471,0)"><line stroke="#000" y2="6"></line><text fill="#000" y="9" dy="0.71em">33</text></g><g class="tick" opacity="1" transform="translate(554.2780748663102,0)"><line stroke="#000" y2="6"></line><text fill="#000" y="9" dy="0.71em">34</text></g><g class="tick" opacity="1" transform="translate(570.3208556149733,0)"><line stroke="#000" y2="6"></line><text fill="#000" y="9" dy="0.71em">35</text></g><g class="tick" opacity="1" transform="translate(586.3636363636364,0)"><line stroke="#000" y2="6"></line><text fill="#000" y="9" dy="0.71em">36</text></g><g class="tick" opacity="1" transform="translate(602.4064171122996,0)"><line stroke="#000" y2="6"></line><text fill="#000" y="9" dy="0.71em">37</text></g><g class="tick" opacity="1" transform="translate(618.4491978609626,0)"><line stroke="#000" y2="6"></line><text fill="#000" y="9" dy="0.71em">38</text></g><g class="tick" opacity="1" transform="translate(634.4919786096257,0)"><line stroke="#000" y2="6"></line><text fill="#000" y="9" dy="0.71em">39</text></g><g class="tick" opacity="1" transform="translate(650.5347593582889,0)"><line stroke="#000" y2="6"></line><text fill="#000" y="9" dy="0.71em">40</text></g><g class="tick" opacity="1" transform="translate(666.5775401069519,0)"><line stroke="#000" y2="6"></line><text fill="#000" y="9" dy="0.71em">41</text></g><g class="tick" opacity="1" transform="translate(682.620320855615,0)"><line stroke="#000" y2="6"></line><text fill="#000" y="9" dy="0.71em">42</text></g><g class="tick" opacity="1" transform="translate(698.6631016042782,0)"><line stroke="#000" y2="6"></line><text fill="#000" y="9" dy="0.71em">43</text></g><g class="tick" opacity="1" transform="translate(714.7058823529412,0)"><line stroke="#000" y2="6"></line><text fill="#000" y="9" dy="0.71em">44</text></g><g class="tick" opacity="1" transform="translate(730.7486631016043,0)"><line stroke="#000" y2="6"></line><text fill="#000" y="9" dy="0.71em">45</text></g><g class="tick" opacity="1" transform="translate(746.7914438502675,0)"><line stroke="#000" y2="6"></line><text fill="#000" y="9" dy="0.71em">46</text></g><g class="tick" opacity="1" transform="translate(762.8342245989305,0)"><line stroke="#000" y2="6"></line><text fill="#000" y="9" dy="0.71em">47</text></g><g class="tick" opacity="1" transform="translate(778.8770053475936,0)"><line stroke="#000" y2="6"></line><text fill="#000" y="9" dy="0.71em">48</text></g><g class="tick" opacity="1" transform="translate(794.9197860962568,0)"><line stroke="#000" y2="6"></line><text fill="#000" y="9" dy="0.71em">49</text></g><g class="tick" opacity="1" transform="translate(810.9625668449198,0)"><line stroke="#000" y2="6"></line><text fill="#000" y="9" dy="0.71em">50</text></g><g class="tick" opacity="1" transform="translate(827.005347593583,0)"><line stroke="#000" y2="6"></line><text fill="#000" y="9" dy="0.71em">51</text></g><g class="tick" opacity="1" transform="translate(843.0481283422461,0)"><line stroke="#000" y2="6"></line><text fill="#000" y="9" dy="0.71em">52</text></g><g class="tick" opacity="1" transform="translate(859.0909090909091,0)"><line stroke="#000" y2="6"></line><text fill="#000" y="9" dy="0.71em">53</text></g><g class="tick" opacity="1" transform="translate(875.1336898395723,0)"><line stroke="#000" y2="6"></line><text fill="#000" y="9" dy="0.71em">54</text></g><g class="tick" opacity="1" transform="translate(891.1764705882354,0)"><line stroke="#000" y2="6"></line><text fill="#000" y="9" dy="0.71em">55</text></g></g><text transform="translate(450, 475)" style="text-anchor: middle;"></text><g fill="none" font-size="10" font-family="sans-serif" text-anchor="end"><path class="domain" stroke="#000" d="M-6,450.5000H0.5000V0.5000H-6"></path><g class="tick" opacity="1" transform="translate(0,450.5)"><line stroke="#000" x2="-6"></line><text fill="#000" x="-9" dy="0.32em">0.0</text></g><g class="tick" opacity="1" transform="translate(0,407.43779904306217)"><line stroke="#000" x2="-6"></line><text fill="#000" x="-9" dy="0.32em">0.2</text></g><g class="tick" opacity="1" transform="translate(0,364.3755980861244)"><line stroke="#000" x2="-6"></line><text fill="#000" x="-9" dy="0.32em">0.4</text></g><g class="tick" opacity="1" transform="translate(0,321.3133971291866)"><line stroke="#000" x2="-6"></line><text fill="#000" x="-9" dy="0.32em">0.6</text></g><g class="tick" opacity="1" transform="translate(0,278.2511961722488)"><line stroke="#000" x2="-6"></line><text fill="#000" x="-9" dy="0.32em">0.8</text></g><g class="tick" opacity="1" transform="translate(0,235.18899521531097)"><line stroke="#000" x2="-6"></line><text fill="#000" x="-9" dy="0.32em">1.0</text></g><g class="tick" opacity="1" transform="translate(0,192.1267942583732)"><line stroke="#000" x2="-6"></line><text fill="#000" x="-9" dy="0.32em">1.2</text></g><g class="tick" opacity="1" transform="translate(0,149.0645933014354)"><line stroke="#000" x2="-6"></line><text fill="#000" x="-9" dy="0.32em">1.4</text></g><g class="tick" opacity="1" transform="translate(0,106.00239234449757)"><line stroke="#000" x2="-6"></line><text fill="#000" x="-9" dy="0.32em">1.6</text></g><g class="tick" opacity="1" transform="translate(0,62.940191387559786)"><line stroke="#000" x2="-6"></line><text fill="#000" x="-9" dy="0.32em">1.8</text></g><g class="tick" opacity="1" transform="translate(0,19.87799043062196)"><line stroke="#000" x2="-6"></line><text fill="#000" x="-9" dy="0.32em">2.0</text></g></g><text transform="rotate(-90)" y="-40" x="-225" dy="1em" style="text-anchor: middle;"></text></g></svg>